<svg width="120" height="30" viewBox="0 0 120 30" fill="none" xmlns="http://www.w3.org/2000/svg"><path fill-rule="evenodd" clip-rule="evenodd" d="M3.07 4.923l5.295 9.125 5.883-3.114-2.53-4.877 2.004-3.57L12.285 0 3.07 4.923zM0 20h10.563v-5.903L7.64 15.934 4.136 10H0v10zm2.825 4.76l1.815-3.264h7.324v-3.52l5.231 2.843L11.964 30l-9.14-5.24zm12.65 1.88L17.26 30l9.516-5.195-5.433-8.853-5.21 2.7 2.91 1.865-3.567 6.123zm3.317-10.717V10h10.686v10h-4.142l-3.362-5.903-3.182 1.826zm-1.28-7.452v3.553l-1.603-1.1V6.35h-2.275L17.51 0l9.265 5.145L24.86 8.47h-7.35z" fill="url(#paint0_linear)"/><path d="M39.593 22.452V7.29h5.567c1.213 0 2.21.21 2.99.628.793.404 1.385.96 1.775 1.668.39.693.585 1.465.585 2.317 0 .925-.245 1.77-.736 2.535-.477.765-1.228 1.321-2.253 1.667l3.14 6.347h-3.183l-2.816-5.978h-2.296v5.978h-2.773zm2.773-8.014h2.62c.925 0 1.604-.224 2.037-.672.433-.447.65-1.04.65-1.776 0-.722-.217-1.3-.65-1.733-.419-.433-1.105-.65-2.058-.65h-2.6v4.83zm15.222 8.274c-1.083 0-2.043-.231-2.88-.693a5.017 5.017 0 01-1.972-1.95c-.476-.837-.714-1.805-.714-2.902 0-1.112.23-2.101.693-2.968a5.133 5.133 0 011.95-2.014c.837-.491 1.819-.737 2.945-.737 1.054 0 1.986.232 2.794.694a4.88 4.88 0 011.885 1.906c.462.794.693 1.682.693 2.664 0 .159-.007.325-.022.498 0 .174-.007.354-.022.542h-8.166c.058.837.347 1.494.867 1.97.534.477 1.177.716 1.928.716.563 0 1.032-.123 1.408-.369.39-.26.678-.592.866-.996h2.816a5.125 5.125 0 01-1.018 1.863 4.895 4.895 0 01-1.733 1.3c-.679.317-1.451.476-2.318.476zm.022-9.01c-.679 0-1.278.194-1.798.584-.52.375-.852.953-.996 1.733h5.35c-.043-.708-.303-1.27-.78-1.69-.476-.418-1.068-.628-1.776-.628zm12.3 8.75c-1.126 0-2.028-.274-2.707-.823-.679-.549-1.018-1.524-1.018-2.924v-4.679h-1.841v-2.318h1.84l.326-2.88h2.447v2.88h2.903v2.318h-2.903v4.7c0 .52.109.881.325 1.084.231.187.621.281 1.17.281h1.343v2.361H69.91zm4.33 0V11.708h2.47l.26 2.015a4.44 4.44 0 011.58-1.646c.68-.42 1.474-.629 2.383-.629v2.925h-.78c-.606 0-1.148.094-1.624.281a2.24 2.24 0 00-1.126.975c-.26.462-.39 1.105-.39 1.928v4.895H74.24zM84.323 10.04c-.506 0-.924-.151-1.256-.454a1.52 1.52 0 01-.477-1.148c0-.462.159-.838.477-1.127.332-.303.75-.455 1.256-.455.505 0 .917.152 1.235.455.332.29.498.665.498 1.127 0 .462-.166.844-.498 1.148-.318.303-.73.454-1.235.454zm-1.386 12.412V11.708h2.772v10.744h-2.772zm16.02-10.744v10.744h-2.448l-.216-1.82a3.756 3.756 0 01-1.452 1.517c-.62.375-1.357.563-2.21.563-1.328 0-2.36-.419-3.097-1.256-.736-.838-1.104-2.065-1.104-3.683v-6.065h2.772v5.806c0 .924.188 1.631.564 2.122.375.491.96.737 1.754.737.78 0 1.415-.275 1.906-.823.506-.55.758-1.315.758-2.297v-5.545h2.773zm2.824 10.744V11.708h2.448l.239 1.452c.346-.52.801-.932 1.363-1.235.579-.318 1.243-.477 1.993-.477 1.662 0 2.838.643 3.531 1.928a4.21 4.21 0 011.559-1.408 4.618 4.618 0 012.167-.52c1.401 0 2.477.42 3.227 1.257.751.837 1.127 2.065 1.127 3.682v6.065h-2.773v-5.805c0-.924-.18-1.632-.541-2.123-.347-.49-.889-.736-1.625-.736-.751 0-1.357.274-1.82.823-.447.549-.671 1.314-.671 2.296v5.545h-2.773v-5.805c0-.924-.18-1.632-.54-2.123-.362-.49-.918-.736-1.669-.736-.737 0-1.335.274-1.798.823-.447.549-.672 1.314-.672 2.296v5.545h-2.772z" fill="#fff"/><defs><linearGradient id="paint0_linear" x1="30.838" y1="23.518" x2="26.786" y2="-1.259" gradientUnits="userSpaceOnUse"><stop stop-color="#FF8028"/><stop offset="1" stop-color="#FFD02C"/></linearGradient></defs></svg>